# xmcd
#
# Track frame offsets: 
#        150
#        19057
#        35895
#        54050
#        72355
#        92920
#        112427
#        128277
#        143045
#        163937
#
# Disc length: 2457 seconds
#
# Revision: 9
# Processed by: cddbd v1.5.2PL0 Copyright (c) Steve Scherf et al.
# Submitted via: ExactAudioCopyFreeDBPlugin 1.0
#
DISCID=8b09970a
DTITLE=Various Artist - Amazing Grace - A Country Salute to Gospel
DYEAR=1995
DGENRE=Country
TTITLE0=Lari White - Amazing Grace
TTITLE1=John Anderson - Peace in the Valley
TTITLE2=John Berry - Blessed Assurance
TTITLE3=Martina McBride - How Great Thou Art
TTITLE4=Billy Dean and Susan Ashton - In The Garden
TTITLE5=Paul Overstreet - Mansion Over the Hilltop
TTITLE6=Shenandoah - Beulah Land
TTITLE7=Alison Krauss and The Cox Family - I'd Rather Have Jesus
TTITLE8=Charlie Daniels Band - Kneel at the Cross
TTITLE9=EmmyLou Harris - Precious Memories
EXTD=
EXTT0=Lari White
EXTT1=John Anderson
EXTT2=John Berry
EXTT3=Martina McBride
EXTT4=Billy Dean and Susan Ashton
EXTT5=Paul Overstreet
EXTT6=Shenandoah
EXTT7=Alison Kruss and The Cox Family and featuring suzanne Cox
EXTT8=Charlie Daniels Band
EXTT9=Emmylou Harris
PLAYORDER=
